<?xml version="1.0" encoding="UTF-8"?>
<svg version="1.1" xmlns="http://www.w3.org/2000/svg" width="771" height="768">
<path d="M0 0 C0.67804688 0.80179687 1.35609375 1.60359375 2.0546875 2.4296875 C2.83457031 3.34492187 3.61445313 4.26015625 4.41796875 5.203125 C7.53379193 9.05065782 10.59961821 12.93406992 13.63134766 16.84814453 C16.94454284 21.11025899 20.38924486 25.23006479 23.9296875 29.3046875 C28.38364803 34.43379427 32.62594836 39.68487444 36.78515625 45.0546875 C40.04949996 49.24501982 43.44741215 53.29425213 46.9296875 57.3046875 C50.89794357 61.87481275 54.72264903 66.52024709 58.4296875 71.3046875 C62.34974288 76.35038846 66.36250433 81.30367605 70.4921875 86.1796875 C71.00523437 86.79328125 71.51828125 87.406875 72.046875 88.0390625 C73.29622446 89.50056564 74.60775677 90.908491 75.9296875 92.3046875 C76.5896875 92.3046875 77.2496875 92.3046875 77.9296875 92.3046875 C79.65864869 90.46900032 81.2680826 88.62424557 82.8671875 86.6796875 C83.59917358 85.80268188 83.59917358 85.80268188 84.34594727 84.90795898 C88.23798298 80.21640382 91.9944682 75.42358607 95.73217773 70.60888672 C99.49199216 65.79297451 103.44400302 61.16743869 107.44897461 56.55493164 C110.8989863 52.56120746 114.19820934 48.47666615 117.4296875 44.3046875 C121.68185905 38.81573049 126.11775874 33.52159053 130.66015625 28.27124023 C133.47487848 25.01351077 136.24304234 21.73244697 138.9296875 18.3671875 C139.88294922 17.21476562 139.88294922 17.21476562 140.85546875 16.0390625 C142.52869944 13.833297 143.92713799 11.68396628 145.34765625 9.3203125 C151.67615676 -0.65649116 151.67615676 -0.65649116 156.91162109 -2.328125 C162.13365209 -2.92369349 167.27108796 -2.00492667 172.42919922 -1.19824219 C176.41363291 -0.62578205 180.3938172 -0.24564107 184.40234375 0.109375 C268.38736606 7.71847311 349.81978719 29.35527747 426.9296875 63.3046875 C414.57581337 97.50164343 366.25244018 123.23888749 335.6171875 137.8671875 C334.91754883 138.20218262 334.21791016 138.53717773 333.49707031 138.88232422 C330.00212577 140.50650594 326.75541099 141.7644983 322.9296875 142.3046875 C322.62675781 141.03753906 322.32382812 139.77039063 322.01171875 138.46484375 C319.07416671 125.71291328 319.07416671 125.71291328 312.9296875 114.3046875 C312.42824219 113.61375 311.92679688 112.9228125 311.41015625 112.2109375 C297.08647283 94.23085714 270.02881265 91.12723427 248.67871094 88.60180664 C239.86214853 87.64889754 231.03864371 87.09631353 222.1796875 86.7421875 C221.24253906 86.69900391 220.30539062 86.65582031 219.33984375 86.61132812 C211.71390733 86.30056875 204.09919855 86.28237068 196.46777344 86.29321289 C195.35643036 86.29404121 194.24508728 86.29486954 193.10006714 86.29572296 C190.37660535 86.29787253 187.6531474 86.30088341 184.9296875 86.3046875 C184.78156962 87.13837955 184.63345175 87.97207159 184.48084545 88.83102703 C184.16188037 90.62634475 184.16188037 90.62634475 183.83647156 92.45793152 C183.71829142 93.12311694 183.60011128 93.78830236 183.47834992 94.47364491 C182.78747249 98.36229817 182.09659485 102.2509514 181.4057169 106.13960457 C179.92546935 114.47127905 178.44522352 122.80295383 176.96498358 131.13462967 C176.065117 136.19961657 175.16524921 141.26460326 174.26538086 146.32958984 C174.07948654 147.3759121 173.89359223 148.42223435 173.70206475 149.50026333 C171.14902419 163.87026124 168.59593643 178.24025075 166.04280949 192.61023331 C163.99987752 204.10864222 161.95696576 215.60705473 159.9140625 227.10546875 C159.70711596 228.27025883 159.50016943 229.4350489 159.28695178 230.63513565 C153.73650488 261.87563928 148.18674149 293.11626421 142.63797158 324.35706574 C139.2146107 343.63131452 135.79097609 362.90551469 132.3671875 382.1796875 C132.1898418 383.17805933 132.0124961 384.17643115 131.82977629 385.20505667 C118.58366739 459.77411412 105.31698225 534.33950059 92.03921211 608.90292668 C91.50790377 611.88659864 90.97660974 614.87027314 90.44532108 617.85394859 C90.10140049 619.78537371 89.75747978 621.7167988 89.41355896 623.64822388 C89.16302182 625.05522106 89.16302182 625.05522106 88.90742332 626.49064243 C87.94347338 631.90402289 86.97938613 637.31737888 86.01517874 642.73071349 C85.42587263 646.03937956 84.83667264 649.34806452 84.24749672 652.65675378 C83.98062154 654.15533227 83.71370127 655.65390272 83.44672763 657.15246367 C81.59712259 667.53467948 79.75975244 677.919011 77.9296875 688.3046875 C77.2696875 688.3046875 76.6096875 688.3046875 75.9296875 688.3046875 C66.47133065 636.15601594 57.03281593 584.00389533 47.703125 531.83203125 C47.51422683 530.77572974 47.32532866 529.71942823 47.13070631 528.63111758 C44.79175284 515.55105695 42.45451814 502.47068944 40.11778414 489.39023215 C36.53510179 469.33598459 32.94878505 449.28238644 29.36289597 429.22871208 C28.50219533 424.41534173 27.64154334 419.60196269 26.78093338 414.78857613 C18.06310196 366.0303431 9.3234183 317.27604131 0.57606745 268.52309656 C-0.28819244 263.70614754 -1.15241201 258.88919128 -2.01663208 254.07223511 C-2.18564339 253.13020872 -2.35465469 252.18818234 -2.52878755 251.2176097 C-4.18151189 242.00573235 -5.83421824 232.79385178 -7.48689914 223.58196664 C-7.96137741 220.93728964 -8.43586628 218.29261454 -8.91035652 215.64793968 C-14.49239079 184.53493183 -20.0667156 153.42055093 -25.6328125 122.3046875 C-25.81044884 121.31165745 -25.98808517 120.3186274 -26.17110443 119.29550552 C-28.13818977 108.29868821 -30.10471561 97.30177096 -32.0703125 86.3046875 C-54.08195448 86.18436966 -54.08195448 86.18436966 -76.0703125 87.0546875 C-76.76968933 87.09725677 -77.46906616 87.13982605 -78.18963623 87.1836853 C-121.95900605 89.81030467 -121.95900605 89.81030467 -158.0703125 112.3046875 C-164.97546638 120.96589345 -167.02021421 131.64823598 -169.0703125 142.3046875 C-172.86122267 141.68868597 -175.96540969 140.57982884 -179.4296875 138.93359375 C-180.45449219 138.44697266 -181.47929687 137.96035156 -182.53515625 137.45898438 C-184.16130859 136.67104492 -184.16130859 136.67104492 -185.8203125 135.8671875 C-186.94050781 135.32513672 -188.06070313 134.78308594 -189.21484375 134.22460938 C-209.95824993 124.06724688 -228.76430718 111.6058693 -246.0703125 96.3046875 C-246.98683594 95.510625 -247.90335938 94.7165625 -248.84765625 93.8984375 C-254.02827879 89.34883816 -258.73822064 84.66779913 -263.0703125 79.3046875 C-263.48909668 78.7876123 -263.90788086 78.27053711 -264.33935547 77.73779297 C-265.74008639 75.99788047 -267.12621406 74.24732204 -268.5078125 72.4921875 C-268.95769531 71.92854492 -269.40757812 71.36490234 -269.87109375 70.78417969 C-273.0703125 66.65351138 -273.0703125 66.65351138 -273.0703125 63.3046875 C-253.34591219 54.48261649 -233.50895657 46.34563902 -213.0703125 39.3046875 C-212.41200439 39.07759094 -211.75369629 38.85049438 -211.07543945 38.61651611 C-183.14045275 29.01122515 -18.81296696 -15.40533521 0 0 Z " fill="#E82026" transform="translate(308.0703125,76.6953125)"/>
<path d="M0 0 C1.67644089 0.00090637 1.67644089 0.00090637 3.38674927 0.00183105 C97.24542542 0.1379363 191.38289221 13.58163363 372.9375 69.75 C374.60051147 70.37660522 374.60051147 70.37660522 376.29711914 71.01586914 C377.30121826 71.40379639 378.30531738 71.79172363 379.33984375 72.19140625 C380.22019287 72.52986572 381.10054199 72.8683252 382.00756836 73.21704102 C384 74.1875 384 74.1875 385 76.1875 C384.4777832 77.97729492 384.4777832 77.97729492 383.55078125 80.16796875 C383.20265381 80.99208252 382.85452637 81.81619629 382.49584961 82.6652832 C382.10534424 83.55948975 381.71483887 84.45369629 381.3125 85.375 C380.91619385 86.2930542 380.5198877 87.2111084 380.11157227 88.15698242 C375.28959343 99.11048804 369.67722595 109.65853728 364 120.1875 C360.30753704 119.56078421 357.1076342 118.52466503 353.66015625 117.0703125 C352.61327637 116.63396484 351.56639648 116.19761719 350.48779297 115.74804688 C349.35744629 115.27431641 348.22709961 114.80058594 347.0625 114.3125 C287.69192059 89.8228381 226.17429065 72.52965519 163 61.1875 C162.33969788 61.06868469 161.67939575 60.94986938 160.99908447 60.82745361 C125.06324512 54.40261942 88.4551222 50.83002136 52 49.1875 C50.81970215 49.13110352 49.6394043 49.07470703 48.42333984 49.01660156 C-40.85260333 44.88696303 -130.30910174 52.25931513 -357.21728516 119.50805664 C-359 120.1875 -359 120.1875 -362 120.1875 C-364.0330846 116.31728142 -366.05902994 112.44342634 -368.07910156 108.56640625 C-368.76378661 107.25457271 -369.45024266 105.94366161 -370.13867188 104.63378906 C-373.80781901 97.6495353 -377.36748493 90.63340949 -380.5546875 83.4140625 C-381.05210449 82.28822754 -381.54952148 81.16239258 -382.06201172 80.00244141 C-383 77.1875 -383 77.1875 -382 74.1875 C-379.97021484 73.09106445 -379.97021484 73.09106445 -377.2109375 72.05078125 C-376.14915283 71.64674072 -375.08736816 71.2427002 -373.9934082 70.82641602 C-372.7993335 70.38869873 -371.60525879 69.95098145 -370.375 69.5 C-369.09528748 69.02468176 -367.815584 68.54933915 -366.53588867 68.07397461 C-332.80901956 55.63400318 -298.73158773 44.46668163 -264 35.1875 C-263.17536255 34.96640564 -262.3507251 34.74531128 -261.50109863 34.51751709 C-198.62303958 17.70050169 -134.20681838 7.22079338 -69.3125 2.4375 C-68.51260651 2.37824341 -67.71271301 2.31898682 -66.88858032 2.25793457 C-44.61460595 0.63847153 -22.33004441 -0.02273228 0 0 Z " fill="#E82026" transform="translate(384,0.8125)"/>
</svg>
